<?xml version="1.0" standalone="no"?>
<!DOCTYPE svg PUBLIC "-//W3C//DTD SVG 20010904//EN"
 "http://www.w3.org/TR/2001/REC-SVG-20010904/DTD/svg10.dtd">
<svg version="1.0" xmlns="http://www.w3.org/2000/svg"
 width="1500.000000pt" height="2609.000000pt" viewBox="0 0 1500.000000 2609.000000"
 preserveAspectRatio="xMidYMid meet">
<metadata>
Created by potrace 1.11, written by Peter Selinger 2001-2013
</metadata>
<g transform="translate(0.000000,2609.000000) scale(0.100000,-0.100000)"
fill="#000000" stroke="none">
<path d="M9810 24480 c-945 -37 -1933 -270 -2905 -685 -330 -141 -581 -262
-960 -465 -121 -65 -416 -218 -655 -340 -976 -500 -1434 -764 -1765 -1019
-305 -234 -438 -375 -533 -566 -22 -44 -47 -106 -55 -139 -9 -32 -18 -61 -21
-64 -4 -3 -29 2 -57 11 l-51 16 7 -127 c8 -144 13 -156 106 -292 166 -243 365
-401 889 -705 283 -164 413 -246 534 -337 98 -74 542 -512 819 -808 522 -557
688 -721 929 -912 121 -97 305 -223 411 -282 37 -21 67 -41 67 -46 0 -18 -98
-140 -179 -223 -162 -167 -282 -258 -689 -520 -148 -96 -323 -214 -388 -262
-213 -158 -402 -361 -498 -533 -52 -93 -98 -204 -89 -213 13 -11 204 -29 318
-29 250 0 549 69 730 168 l50 27 9 77 8 78 117 112 c181 176 331 284 776 563
121 75 271 173 333 217 63 44 116 77 119 75 9 -10 -18 -158 -43 -229 -29 -88
-61 -143 -131 -230 -131 -164 -327 -288 -748 -474 -121 -53 -255 -114 -298
-135 l-77 -39 30 -60 c16 -32 53 -99 82 -147 28 -48 51 -92 51 -98 0 -6 -73
-112 -163 -235 -193 -266 -334 -475 -417 -620 -80 -140 -125 -230 -115 -230
20 0 122 40 188 73 150 75 283 204 457 441 243 330 309 416 378 488 62 64 83
79 127 92 136 39 250 28 493 -49 189 -60 284 -83 384 -91 80 -6 82 -6 88 17
18 67 -2 161 -45 213 -54 66 -139 98 -368 141 -127 23 -240 51 -240 59 0 18
86 211 128 286 133 240 259 385 743 861 l399 392 187 47 c104 26 276 77 383
113 612 205 1110 451 2295 1137 899 520 1340 743 1865 942 183 69 210 76 535
128 416 67 565 107 739 198 103 54 214 152 272 239 44 66 88 175 102 249 l9
52 -36 -4 c-279 -28 -367 -43 -596 -100 -278 -69 -537 -163 -1155 -417 -694
-285 -1022 -394 -1386 -457 l-115 -20 -73 55 -72 55 -23 132 c-40 235 -126
658 -256 1258 -70 322 -149 696 -176 831 -171 860 -246 1533 -237 2127 l3 232
-90 0 c-49 0 -126 2 -170 4 -44 2 -172 0 -285 -4z m-4020 -2027 c17 -38 92
-221 167 -408 196 -496 282 -667 444 -880 200 -265 437 -516 986 -1042 527
-506 759 -752 970 -1029 68 -90 223 -314 223 -323 0 -16 -102 -126 -159 -171
-63 -51 -174 -112 -274 -151 -54 -22 -319 -100 -323 -96 -2 1 -12 45 -23 97
-32 145 -67 243 -137 385 -172 349 -480 655 -929 923 -146 87 -414 223 -605
306 -85 37 -159 72 -164 76 -5 5 -17 35 -28 67 -28 83 -116 264 -176 360 -91
148 -213 300 -462 579 -318 355 -432 509 -543 730 -68 136 -68 128 3 164 87
44 177 100 320 200 289 201 458 276 632 279 l46 1 32 -67z"/>
<path d="M7785 15374 c-296 -25 -585 -103 -791 -214 -110 -59 -308 -186 -418
-269 -123 -92 -331 -293 -443 -426 -161 -192 -333 -468 -439 -706 -169 -377
-279 -864 -245 -1079 25 -152 85 -375 161 -597 43 -125 117 -340 164 -476 93
-272 92 -260 38 -337 -58 -82 -145 -135 -345 -209 -76 -28 -165 -65 -198 -81
l-59 -30 26 -68 c402 -1052 639 -2185 729 -3472 51 -748 51 -1642 0 -2540 -45
-772 -162 -2016 -240 -2540 -13 -91 -42 -325 -65 -520 -75 -662 -129 -966
-223 -1263 -18 -55 -22 -79 -14 -82 21 -7 497 -58 501 -54 2 2 29 207 60 454
144 1158 207 1897 231 2710 3 110 13 286 20 390 49 650 67 1204 67 2070 0 751
-6 1053 -47 2330 -25 786 -39 1290 -51 1793 -6 276 -6 282 14 282 32 0 334
-56 619 -116 640 -133 859 -161 1202 -151 154 4 244 12 357 31 718 121 1174
303 1519 604 205 179 394 458 510 755 147 375 189 840 115 1255 -26 145 -111
506 -155 655 -156 526 -407 984 -715 1301 -415 427 -847 588 -1615 600 -121 2
-242 2 -270 0z m711 -754 c295 -24 615 -79 745 -129 329 -127 623 -374 817
-687 205 -330 314 -721 314 -1124 0 -293 -41 -508 -149 -780 -195 -493 -492
-863 -926 -1153 -197 -132 -515 -272 -754 -332 -86 -21 -430 -35 -638 -24
-708 34 -1174 264 -1549 764 -211 281 -358 631 -428 1022 -20 112 -23 160 -23
393 0 213 4 285 19 365 83 455 246 784 531 1071 98 99 158 150 245 207 362
238 783 372 1290 410 106 8 387 6 506 -3z"/>
</g>
</svg>
