<?xml version="1.0" standalone="no"?>
<!DOCTYPE svg PUBLIC "-//W3C//DTD SVG 20010904//EN"
 "http://www.w3.org/TR/2001/REC-SVG-20010904/DTD/svg10.dtd">
<svg version="1.0" xmlns="http://www.w3.org/2000/svg"
 width="450.000000pt" height="470.000000pt" viewBox="0 0 450.000000 470.000000"
 preserveAspectRatio="xMidYMid meet">
<metadata>
Created by potrace 1.11, written by Peter Selinger 2001-2013
</metadata>
<g transform="translate(0.000000,470.000000) scale(0.100000,-0.100000)"
fill="#000000" stroke="none">
<path d="M1966 4455 c-302 -32 -628 -139 -708 -234 -35 -42 -35 -13 6 -456 13
-148 28 -308 31 -355 9 -114 22 -733 15 -742 -3 -3 -67 -2 -144 4 -170 12
-216 6 -261 -34 -47 -41 -71 -119 -55 -178 24 -88 92 -165 225 -256 166 -113
304 -164 540 -204 208 -34 283 -41 550 -46 454 -10 854 44 1083 147 52 23 121
66 257 159 33 22 112 117 131 158 22 47 16 151 -12 189 -47 63 -64 68 -207 66
-73 -1 -147 -5 -164 -8 l-33 -6 0 53 c0 33 -6 62 -16 77 -35 49 -11 602 51
1198 8 78 15 156 15 173 0 42 -64 104 -153 146 -94 44 -355 118 -488 139 -149
22 -491 28 -663 10z"/>
<path d="M1345 1182 c-104 -50 -135 -169 -74 -290 48 -97 126 -150 252 -173
84 -16 175 -3 305 43 76 27 107 32 247 39 191 10 156 10 345 0 141 -7 165 -11
270 -46 137 -45 254 -53 352 -22 236 73 299 389 91 458 -95 31 -183 -19 -183
-104 0 -23 5 -49 10 -57 7 -11 10 -3 10 28 0 32 6 49 25 67 44 45 139 26 170
-35 59 -114 -54 -259 -203 -260 -68 0 -153 29 -277 94 -160 85 -206 99 -307
97 -110 -3 -146 -3 -255 0 -102 2 -148 -12 -327 -105 -61 -31 -132 -63 -160
-71 -97 -29 -184 -15 -246 41 -87 79 -96 196 -18 244 78 47 158 11 158 -72 0
-31 3 -39 10 -28 5 8 10 34 10 57 0 33 -7 50 -28 74 -24 27 -37 33 -83 36 -39
3 -65 -2 -94 -15z"/>
</g>
</svg>
