<?xml version="1.0"?><svg width="640" height="480" xmlns="http://www.w3.org/2000/svg">
 <title>MONOCLE</title>
 <defs>
  <filter color-interpolation-filters="sRGB" id="filter4872">
   <feGaussianBlur id="feGaussianBlur4874" stdDeviation="0.079816"/>
  </filter>
  <filter color-interpolation-filters="sRGB" id="filter4582">
   <feGaussianBlur id="feGaussianBlur4584" stdDeviation="0.120264"/>
  </filter>
  <filter color-interpolation-filters="sRGB" id="filter4508">
   <feGaussianBlur id="feGaussianBlur4510" stdDeviation="1.472739"/>
  </filter>
 </defs>
 <metadata id="metadata3602">image/svg+xml</metadata>
 <g>
  <title>Layer 1</title>
  <g id="layer1">
   <g opacity="0.345679" stroke="#000000" filter="url(#filter4872)" id="g4818">
    <path fill="#ffffff" stroke="#000000" stroke-miterlimit="4" d="m230.257919,321.818817c0.680664,1.507477 -0.007019,3.289093 -1.535995,3.979431c-1.528839,0.690308 -3.320023,0.027954 -4.000671,-1.479492c-0.680649,-1.507477 0.007019,-3.289063 1.535873,-3.97937c1.528976,-0.690369 3.320145,-0.028015 4.000793,1.479431z" id="path4820"/>
    <path fill="#ffffff" stroke="#000000" stroke-miterlimit="4" id="path4822" d="m238.414459,324.786407c0.680664,1.507477 -0.007019,3.289093 -1.535995,3.979431c-1.528839,0.690308 -3.320023,0.027954 -4.000687,-1.479492c-0.680634,-1.507446 0.00705,-3.289063 1.535889,-3.97937c1.528961,-0.690369 3.32016,-0.028015 4.000793,1.479431z"/>
    <path fill="#ffffff" stroke="#000000" stroke-miterlimit="4" d="m246.165176,328.479858c0.680649,1.507477 -0.007019,3.289093 -1.535995,3.979431c-1.528854,0.690308 -3.320038,0.027954 -4.000671,-1.479492c-0.680649,-1.507446 0.007019,-3.289063 1.535873,-3.97937c1.528976,-0.690369 3.320145,-0.028015 4.000793,1.479431z" id="path4824"/>
    <path fill="#ffffff" stroke="#000000" stroke-miterlimit="4" id="path4826" d="m253.655731,332.762299c0.680649,1.507477 -0.007019,3.289093 -1.535995,3.979431c-1.528854,0.690308 -3.320023,0.027954 -4.000671,-1.479492c-0.680649,-1.507446 0.007019,-3.289063 1.535873,-3.97937c1.528976,-0.690369 3.320145,-0.028015 4.000793,1.479431z"/>
    <path fill="#ffffff" stroke="#000000" stroke-miterlimit="4" d="m261.152222,337.639404c0.680634,1.507446 -0.007019,3.289063 -1.536011,3.979431c-1.52887,0.690308 -3.320038,0.027954 -4.000687,-1.479523c-0.680649,-1.507446 0.007034,-3.289063 1.535904,-3.97937c1.528931,-0.690369 3.320129,-0.027985 4.000793,1.479462z" id="path4828"/>
    <path fill="#ffffff" stroke="#000000" stroke-miterlimit="4" id="path4830" d="m287.359253,361.75c0.680603,1.507446 -0.00705,3.289063 -1.536011,3.979431c-1.52887,0.690308 -3.320038,0.027924 -4.000671,-1.479523c-0.680664,-1.507446 0.006989,-3.289063 1.535858,-3.97937c1.528992,-0.690369 3.32016,-0.028015 4.000824,1.479462z"/>
    <path fill="#ffffff" stroke="#000000" stroke-miterlimit="4" d="m281.946747,354.926788c0.680634,1.507446 -0.007019,3.289063 -1.536011,3.979431c-1.528839,0.690308 -3.320038,0.027954 -4.000671,-1.479523c-0.680634,-1.507446 0.007019,-3.289063 1.535858,-3.97937c1.528992,-0.690369 3.32019,-0.027985 4.000824,1.479462z" id="path4832"/>
    <path fill="#ffffff" stroke="#000000" stroke-miterlimit="4" id="path4834" d="m275.410217,348.748047c0.680664,1.507477 -0.006989,3.289093 -1.53598,3.979431c-1.52887,0.690308 -3.320038,0.027954 -4.000671,-1.479492c-0.680634,-1.507446 0.007019,-3.289063 1.535889,-3.97937c1.528961,-0.690369 3.320129,-0.028015 4.000763,1.479431z"/>
    <path fill="#ffffff" stroke="#000000" stroke-miterlimit="4" d="m268.409912,343.133026c0.680664,1.507477 -0.007019,3.289063 -1.536011,3.979431c-1.528839,0.690308 -3.320007,0.027954 -4.000671,-1.479492c-0.680634,-1.507477 0.007019,-3.289093 1.535889,-3.979401c1.528961,-0.690338 3.320129,-0.027985 4.000793,1.479462z" id="path4836"/>
    <path fill="#ffffff" stroke="#000000" stroke-miterlimit="4" id="path4838" d="m312.404724,434.567047c-0.495514,1.577942 -2.194824,2.449738 -3.795227,1.947174c-1.600555,-0.502594 -2.496277,-2.18927 -2.000793,-3.767242c0.495544,-1.577942 2.194702,-2.449768 3.795227,-1.947174c1.600403,0.502563 2.496307,2.18927 2.000793,3.767242z"/>
    <path fill="#ffffff" stroke="#000000" stroke-miterlimit="4" d="m311.308228,426.347992c-0.495514,1.577942 -2.194763,2.449738 -3.795197,1.947174c-1.600555,-0.502594 -2.496307,-2.189301 -2.000793,-3.767242c0.495514,-1.577942 2.194672,-2.449799 3.795227,-1.947174c1.600433,0.502563 2.496307,2.18927 2.000763,3.767242z" id="path4840"/>
    <path fill="#ffffff" stroke="#000000" stroke-miterlimit="4" id="path4842" d="m310.420227,417.957581c-0.495483,1.577972 -2.194794,2.449738 -3.795227,1.947174c-1.600525,-0.502594 -2.496277,-2.18927 -2.000763,-3.767242c0.495514,-1.577942 2.194672,-2.449768 3.795227,-1.947174c1.600403,0.502563 2.496277,2.189301 2.000763,3.767242z"/>
    <path fill="#ffffff" stroke="#000000" stroke-miterlimit="4" d="m308.293213,409.759033c-0.495483,1.577942 -2.194794,2.449738 -3.795197,1.947174c-1.600555,-0.502594 -2.496277,-2.18927 -2.000763,-3.767242c0.495514,-1.577942 2.194672,-2.449768 3.795197,-1.947174c1.600433,0.502563 2.496307,2.18927 2.000763,3.767242z" id="path4844"/>
    <path fill="#ffffff" stroke="#000000" stroke-miterlimit="4" id="path4846" d="m306.794983,402.330994c-0.495514,1.577942 -2.194824,2.449738 -3.795227,1.947174c-1.600555,-0.502594 -2.496277,-2.18927 -2.000793,-3.767242c0.495514,-1.577942 2.194702,-2.449768 3.795227,-1.947174c1.600433,0.502563 2.496307,2.18927 2.000793,3.767242z"/>
    <path fill="#ffffff" stroke="#000000" stroke-miterlimit="4" d="m292.035248,371.437592c-0.495514,1.577942 -2.194794,2.449738 -3.795197,1.947174c-1.600555,-0.502594 -2.496307,-2.18927 -2.000793,-3.767242c0.495514,-1.577942 2.194672,-2.449768 3.795227,-1.947174c1.600403,0.502563 2.496277,2.189301 2.000763,3.767242z" id="path4848"/>
    <path fill="#ffffff" stroke="#000000" stroke-miterlimit="4" id="path4850" d="m296.897125,378.489105c-0.495514,1.577972 -2.194824,2.449738 -3.795227,1.947174c-1.600555,-0.502594 -2.496277,-2.18927 -2.000763,-3.767212c0.495483,-1.577972 2.194672,-2.449799 3.795227,-1.947205c1.600403,0.502563 2.496277,2.189301 2.000763,3.767242z"/>
    <path fill="#ffffff" stroke="#000000" stroke-miterlimit="4" d="m300.611206,386.381989c-0.495514,1.577942 -2.194824,2.449738 -3.795227,1.947174c-1.600525,-0.502625 -2.496277,-2.189301 -2.000763,-3.767242c0.495514,-1.577972 2.194672,-2.449799 3.795197,-1.947174c1.600433,0.502563 2.496277,2.18927 2.000793,3.767242z" id="path4852"/>
    <path fill="#ffffff" stroke="#000000" stroke-miterlimit="4" id="path4854" d="m303.84613,394.589203c-0.495514,1.577972 -2.194824,2.449738 -3.795227,1.947174c-1.600555,-0.502594 -2.496277,-2.18927 -2.000763,-3.767212c0.495514,-1.577972 2.194672,-2.449799 3.795197,-1.947205c1.600403,0.502563 2.496277,2.189301 2.000793,3.767242z"/>
    <path fill="#ffffff" stroke="#000000" stroke-miterlimit="4" id="path4856" d="m313.000153,443.917328c-1.141602,1.196777 -3.051086,1.228302 -4.264984,0.070374c-1.213898,-1.157928 -1.272461,-3.066772 -0.130859,-4.26355c1.141602,-1.196777 3.051117,-1.228333 4.265015,-0.070404c1.213867,1.157959 1.272461,3.066803 0.130829,4.26358z"/>
    <path fill="#ffffff" stroke="#000000" stroke-miterlimit="4" d="m312.83374,452.91394c-1.141602,1.196777 -3.051117,1.228333 -4.265015,0.070374c-1.213867,-1.157928 -1.27243,-3.066772 -0.130859,-4.26355c1.141632,-1.196777 3.051117,-1.228333 4.265015,-0.070374c1.213898,1.157928 1.272461,3.066772 0.130859,4.26355z" id="path4858"/>
   </g>
   <g id="g4796">
    <path fill="#ffffff" stroke="#000000" stroke-miterlimit="4" id="path4434" d="m231.391739,319.378235c0.680649,1.507446 -0.007034,3.289063 -1.536011,3.979431c-1.528839,0.690308 -3.320023,0.027954 -4.000671,-1.479523c-0.680649,-1.507446 0.007019,-3.289063 1.535873,-3.97937c1.528961,-0.690369 3.32016,-0.028015 4.000809,1.479462z"/>
    <path fill="#ffffff" stroke="#000000" stroke-miterlimit="4" d="m239.548264,322.345825c0.680649,1.507446 -0.007034,3.289063 -1.535995,3.979431c-1.528854,0.690308 -3.320038,0.027954 -4.000671,-1.479523c-0.680664,-1.507446 0.007019,-3.289063 1.535873,-3.97937c1.528976,-0.690369 3.320145,-0.028015 4.000793,1.479462z" id="path4436"/>
    <path fill="#ffffff" stroke="#000000" stroke-miterlimit="4" id="path4438" d="m247.298981,326.039276c0.680649,1.507446 -0.007034,3.289063 -1.536011,3.979431c-1.528839,0.690308 -3.320023,0.027954 -4.000671,-1.479523c-0.680649,-1.507446 0.007019,-3.289063 1.535873,-3.97937c1.528976,-0.690369 3.32016,-0.028015 4.000809,1.479462z"/>
    <path fill="#ffffff" stroke="#000000" stroke-miterlimit="4" d="m254.789536,330.321716c0.680649,1.507446 -0.007019,3.289063 -1.535995,3.979431c-1.528854,0.690308 -3.320038,0.027954 -4.000687,-1.479523c-0.680649,-1.507446 0.007034,-3.289063 1.535873,-3.97937c1.528976,-0.690369 3.32016,-0.028015 4.000809,1.479462z" id="path4440"/>
    <path fill="#ffffff" stroke="#000000" stroke-miterlimit="4" id="path4442" d="m262.286011,335.198792c0.680664,1.507477 -0.00705,3.289093 -1.536011,3.979431c-1.528839,0.690308 -3.320007,0.027954 -4.000671,-1.479492c-0.680664,-1.507477 0.007019,-3.289063 1.535889,-3.97937c1.528961,-0.690369 3.32016,-0.028015 4.000793,1.479431z"/>
    <path fill="#ffffff" stroke="#000000" stroke-miterlimit="4" d="m288.493011,359.309387c0.680664,1.507446 -0.006989,3.289063 -1.53598,3.979431c-1.52887,0.690308 -3.320038,0.027954 -4.000671,-1.479523c-0.680664,-1.507446 0.007019,-3.289063 1.535889,-3.97937c1.528931,-0.690369 3.320129,-0.027985 4.000763,1.479462z" id="path4444"/>
    <path fill="#ffffff" stroke="#000000" stroke-miterlimit="4" id="path4446" d="m283.080536,352.486176c0.680634,1.507477 -0.007019,3.289093 -1.53598,3.979462c-1.52887,0.690277 -3.320068,0.027924 -4.000702,-1.479523c-0.680634,-1.507446 0.00705,-3.289063 1.535889,-3.97937c1.528961,-0.690369 3.32016,-0.028015 4.000793,1.479431z"/>
    <path fill="#ffffff" stroke="#000000" stroke-miterlimit="4" d="m276.544037,346.307465c0.680634,1.507446 -0.007019,3.289063 -1.53598,3.979431c-1.52887,0.690308 -3.320068,0.027954 -4.000702,-1.479523c-0.680634,-1.507446 0.00705,-3.289063 1.535889,-3.97937c1.528961,-0.690369 3.32016,-0.028015 4.000793,1.479462z" id="path4448"/>
    <path fill="#ffffff" stroke="#000000" stroke-miterlimit="4" id="path4450" d="m269.543732,340.692444c0.680634,1.507446 -0.00705,3.289063 -1.536011,3.979431c-1.52887,0.690308 -3.320038,0.027924 -4.000671,-1.479523c-0.680664,-1.507446 0.007019,-3.289063 1.535858,-3.97937c1.528992,-0.690369 3.32016,-0.028015 4.000824,1.479462z"/>
    <path fill="#ffffff" stroke="#000000" stroke-miterlimit="4" d="m313.538513,432.126434c-0.495514,1.577972 -2.194824,2.449738 -3.795227,1.947174c-1.600525,-0.502594 -2.496277,-2.18927 -2.000763,-3.767212c0.495514,-1.577972 2.194672,-2.449799 3.795197,-1.947205c1.600433,0.502563 2.496277,2.189301 2.000793,3.767242z" id="path4452"/>
    <path fill="#ffffff" stroke="#000000" stroke-miterlimit="4" id="path4454" d="m312.442047,423.907379c-0.495514,1.577972 -2.194794,2.449738 -3.795227,1.947174c-1.600525,-0.502594 -2.496277,-2.18927 -2.000763,-3.767242c0.495514,-1.577942 2.194672,-2.449768 3.795197,-1.947174c1.600433,0.502563 2.496307,2.189301 2.000793,3.767242z"/>
    <path fill="#ffffff" stroke="#000000" stroke-miterlimit="4" d="m311.554016,415.516998c-0.495483,1.577942 -2.194794,2.449738 -3.795197,1.947174c-1.600555,-0.502625 -2.496307,-2.189301 -2.000763,-3.767242c0.495483,-1.577972 2.194641,-2.449799 3.795197,-1.947174c1.600433,0.502563 2.496307,2.18927 2.000763,3.767242z" id="path4456"/>
    <path fill="#ffffff" stroke="#000000" stroke-miterlimit="4" id="path4458" d="m309.427032,407.31842c-0.495514,1.577972 -2.194794,2.449738 -3.795227,1.947174c-1.600555,-0.502594 -2.496277,-2.18927 -2.000763,-3.767212c0.495483,-1.577972 2.194641,-2.449799 3.795227,-1.947205c1.600403,0.502563 2.496277,2.189301 2.000763,3.767242z"/>
    <path fill="#ffffff" stroke="#000000" stroke-miterlimit="4" d="m307.928772,399.890381c-0.495514,1.577972 -2.194824,2.449768 -3.795227,1.947205c-1.600525,-0.502625 -2.496277,-2.189301 -2.000763,-3.767242c0.495514,-1.577972 2.194672,-2.449799 3.795197,-1.947205c1.600433,0.502563 2.496307,2.189301 2.000793,3.767242z" id="path4460"/>
    <path fill="#ffffff" stroke="#000000" stroke-miterlimit="4" id="path4462" d="m293.169067,368.996979c-0.495544,1.577972 -2.194824,2.449768 -3.795227,1.947205c-1.600555,-0.502625 -2.496277,-2.189301 -2.000793,-3.767242c0.495544,-1.577972 2.194702,-2.449799 3.795227,-1.947174c1.600403,0.502533 2.496307,2.18927 2.000793,3.767212z"/>
    <path fill="#ffffff" stroke="#000000" stroke-miterlimit="4" d="m298.030914,376.048523c-0.495483,1.577942 -2.194794,2.449738 -3.795197,1.947174c-1.600555,-0.502594 -2.496277,-2.189301 -2.000793,-3.767242c0.495514,-1.577942 2.194672,-2.449799 3.795227,-1.947174c1.600433,0.502563 2.496277,2.18927 2.000763,3.767242z" id="path4464"/>
    <path fill="#ffffff" stroke="#000000" stroke-miterlimit="4" id="path4466" d="m301.744995,383.941376c-0.495483,1.577972 -2.194794,2.449738 -3.795227,1.947174c-1.600525,-0.502594 -2.496277,-2.18927 -2.000763,-3.767242c0.495514,-1.577942 2.194672,-2.449768 3.795227,-1.947174c1.600433,0.502563 2.496277,2.189301 2.000763,3.767242z"/>
    <path fill="#ffffff" stroke="#000000" stroke-miterlimit="4" d="m304.979919,392.148621c-0.495514,1.577942 -2.194824,2.449738 -3.795227,1.947174c-1.600525,-0.502594 -2.496277,-2.189301 -2.000763,-3.767242c0.495514,-1.577942 2.194672,-2.449799 3.795227,-1.947174c1.600403,0.502563 2.496277,2.18927 2.000763,3.767242z" id="path4468"/>
    <path fill="#ffffff" stroke="#000000" stroke-miterlimit="4" d="m314.133972,441.476715c-1.141602,1.196777 -3.051086,1.228333 -4.265015,0.070374c-1.213867,-1.157928 -1.27243,-3.066772 -0.130829,-4.263519c1.141602,-1.196808 3.051086,-1.228333 4.264984,-0.070404c1.213898,1.157928 1.27243,3.066772 0.130859,4.26355z" id="path4480"/>
    <path fill="#ffffff" stroke="#000000" stroke-miterlimit="4" id="path4482" d="m313.967529,450.473358c-1.141602,1.196747 -3.051086,1.228302 -4.264984,0.070374c-1.213898,-1.157928 -1.272461,-3.066803 -0.130859,-4.26355c1.141632,-1.196808 3.051086,-1.228333 4.264984,-0.070404c1.213928,1.157928 1.272461,3.066772 0.130859,4.26358z"/>
   </g>
   <g opacity="0.415638" stroke="#000000" filter="url(#filter4582)" id="g4516">
    <path fill="#ffffff" stroke="#000000" stroke-miterlimit="4" id="path4518" d="m137.131348,127.807327c0.538345,1.563934 2.260742,2.389023 3.846863,1.843048c1.586258,-0.546036 2.43573,-2.256439 1.897369,-3.820374c-0.5383,-1.563805 -2.260559,-2.388947 -3.846817,-1.842911c-1.586121,0.545982 -2.435715,2.256432 -1.897415,3.820236z"/>
    <path fill="#ffffff" stroke="#000000" stroke-miterlimit="4" d="m133.229828,135.560547c0.538345,1.563934 2.260742,2.389038 3.846863,1.843048c1.586258,-0.546036 2.435715,-2.256439 1.897369,-3.820374c-0.5383,-1.563797 -2.260559,-2.388931 -3.846817,-1.842896c-1.586136,0.545975 -2.43573,2.256424 -1.897415,3.820221z" id="path4520"/>
    <path fill="#ffffff" stroke="#000000" stroke-miterlimit="4" id="path4522" d="m130.12146,143.563873c0.538361,1.563934 2.260742,2.389023 3.846878,1.843033c1.586258,-0.546036 2.435715,-2.256424 1.897369,-3.820374c-0.538315,-1.563797 -2.260574,-2.388931 -3.846832,-1.842896c-1.586121,0.545975 -2.435715,2.256424 -1.897415,3.820236z"/>
    <path fill="#ffffff" stroke="#000000" stroke-miterlimit="4" d="m127.606247,151.817398c0.538345,1.563934 2.260742,2.389023 3.846863,1.843033c1.586258,-0.546036 2.43573,-2.256424 1.897369,-3.820358c-0.5383,-1.563812 -2.260559,-2.388947 -3.846817,-1.842911c-1.586128,0.54599 -2.435722,2.256424 -1.897415,3.820236z" id="path4524"/>
    <path fill="#ffffff" stroke="#000000" stroke-miterlimit="4" id="path4526" d="m125.494583,160.50795c0.538353,1.563934 2.26075,2.389023 3.846878,1.843033c1.586258,-0.546021 2.435715,-2.256424 1.897369,-3.820358c-0.538315,-1.563812 -2.260574,-2.388947 -3.846832,-1.842911c-1.586128,0.54599 -2.435715,2.256424 -1.897415,3.820236z"/>
    <path fill="#ffffff" stroke="#000000" stroke-miterlimit="4" d="m122.954208,196.027969c0.538345,1.563934 2.260742,2.389038 3.84687,1.843048c1.58625,-0.546036 2.435722,-2.256439 1.897362,-3.820374c-0.5383,-1.563797 -2.260567,-2.388931 -3.846817,-1.842911c-1.586128,0.54599 -2.435722,2.256439 -1.897415,3.820236z" id="path4528"/>
    <path fill="#ffffff" stroke="#000000" stroke-miterlimit="4" id="path4530" d="m122.214508,187.350128c0.538353,1.563934 2.26075,2.389023 3.84687,1.843033c1.586258,-0.546021 2.435722,-2.256424 1.897369,-3.820358c-0.538307,-1.563812 -2.260567,-2.388947 -3.846825,-1.842911c-1.586128,0.54599 -2.435722,2.256424 -1.897415,3.820236z"/>
    <path fill="#ffffff" stroke="#000000" stroke-miterlimit="4" d="m122.73494,178.370621c0.538345,1.563934 2.260742,2.389023 3.84687,1.843033c1.58625,-0.546036 2.435722,-2.256424 1.897362,-3.820358c-0.5383,-1.563812 -2.260559,-2.388947 -3.846817,-1.842911c-1.586128,0.545975 -2.435722,2.256424 -1.897415,3.820236z" id="path4532"/>
    <path fill="#ffffff" stroke="#000000" stroke-miterlimit="4" id="path4534" d="m123.979469,169.483307c0.538345,1.563934 2.260742,2.389038 3.846863,1.843048c1.586266,-0.546036 2.435722,-2.256439 1.897377,-3.820374c-0.538315,-1.563797 -2.260574,-2.388947 -3.846832,-1.842911c-1.586121,0.54599 -2.435715,2.256439 -1.897408,3.820236z"/>
    <path fill="#ffffff" stroke="#000000" stroke-miterlimit="4" d="m154.66008,266.201691c1.442688,0.808655 3.277206,0.277924 4.097458,-1.185455c0.820236,-1.463348 0.315613,-3.305206 -1.127075,-4.113861c-1.442688,-0.808655 -3.277191,-0.277954 -4.097443,1.185394c-0.820251,1.463379 -0.315613,3.305237 1.12706,4.113922z" id="path4536"/>
    <path fill="#ffffff" stroke="#000000" stroke-miterlimit="4" id="path4538" d="m149.821869,259.467529c1.442688,0.808655 3.277191,0.277954 4.097443,-1.185425c0.820251,-1.463348 0.315613,-3.305206 -1.127075,-4.113861c-1.442673,-0.80867 -3.277191,-0.277954 -4.097443,1.18541c-0.820251,1.463364 -0.315613,3.305222 1.127075,4.113876z"/>
    <path fill="#ffffff" stroke="#000000" stroke-miterlimit="4" d="m144.714432,252.75177c1.442688,0.808655 3.277206,0.277939 4.097458,-1.185425c0.820236,-1.463364 0.315613,-3.305222 -1.127075,-4.113876c-1.442688,-0.808655 -3.277191,-0.277939 -4.097443,1.185425c-0.820251,1.463364 -0.315613,3.305222 1.12706,4.113876z" id="path4540"/>
    <path fill="#ffffff" stroke="#000000" stroke-miterlimit="4" id="path4542" d="m140.64032,245.326004c1.442688,0.808655 3.277191,0.277939 4.097443,-1.185425c0.820251,-1.463364 0.315613,-3.305222 -1.127075,-4.113876c-1.442673,-0.808655 -3.277191,-0.277954 -4.097443,1.18541c-0.820236,1.463379 -0.315613,3.305237 1.127075,4.113892z"/>
    <path fill="#ffffff" stroke="#000000" stroke-miterlimit="4" d="m136.637024,238.892273c1.442688,0.808655 3.277206,0.277939 4.097443,-1.185425c0.820251,-1.463364 0.315613,-3.305222 -1.12706,-4.113876c-1.442688,-0.808655 -3.277191,-0.277939 -4.097443,1.185425c-0.820251,1.463364 -0.315613,3.305222 1.12706,4.113876z" id="path4544"/>
    <path fill="#ffffff" stroke="#000000" stroke-miterlimit="4" id="path4546" d="m126.194221,206.285492c1.44268,0.808655 3.277199,0.277954 4.09745,-1.185425c0.820236,-1.463364 0.315613,-3.305222 -1.127075,-4.113876c-1.44268,-0.808655 -3.277191,-0.277939 -4.097443,1.185425c-0.820251,1.463364 -0.315613,3.305222 1.127068,4.113876z"/>
    <path fill="#ffffff" stroke="#000000" stroke-miterlimit="4" d="m127.491333,214.751877c1.442688,0.808655 3.277191,0.277939 4.097443,-1.185425c0.820251,-1.463364 0.315613,-3.305222 -1.12706,-4.113876c-1.442688,-0.808655 -3.277199,-0.277939 -4.09745,1.185425c-0.820251,1.463364 -0.315613,3.305222 1.127068,4.113876z" id="path4548"/>
    <path fill="#ffffff" stroke="#000000" stroke-miterlimit="4" id="path4550" d="m130.200668,223.043518c1.442673,0.808655 3.277191,0.277954 4.097443,-1.185425c0.820236,-1.463364 0.315613,-3.305222 -1.127075,-4.113876c-1.442688,-0.808655 -3.277191,-0.277939 -4.097443,1.185425c-0.820251,1.463364 -0.315613,3.305222 1.127075,4.113876z"/>
    <path fill="#ffffff" stroke="#000000" stroke-miterlimit="4" d="m133.474319,231.235275c1.442688,0.80867 3.277191,0.277954 4.097443,-1.18541c0.820251,-1.463364 0.315613,-3.305222 -1.12706,-4.113876c-1.442688,-0.80867 -3.277206,-0.277954 -4.097443,1.18541c-0.820251,1.463364 -0.315613,3.305222 1.12706,4.113876z" id="path4552"/>
    <path fill="#ffffff" stroke="#000000" stroke-miterlimit="4" id="path4554" d="m213.685318,315.931396c1.651642,0.088196 3.063034,-1.198273 3.152481,-2.873505c0.089447,-1.675079 -1.176895,-3.104675 -2.828552,-3.192871c-1.651627,-0.088196 -3.063019,1.198425 -3.152481,2.873505c-0.089447,1.675201 1.176895,3.104675 2.828552,3.192871z"/>
    <path fill="#ffffff" stroke="#000000" stroke-miterlimit="4" d="m206.502075,311.779175c1.651642,0.088196 3.063034,-1.198303 3.152496,-2.873505c0.089447,-1.675079 -1.17691,-3.104706 -2.828552,-3.192902c-1.651642,-0.088196 -3.063034,1.198425 -3.152481,2.873505c-0.089462,1.675232 1.176895,3.104706 2.828537,3.192902z" id="path4556"/>
    <path fill="#ffffff" stroke="#000000" stroke-miterlimit="4" id="path4558" d="m199.157455,306.785217c1.651627,0.088196 3.063019,-1.198303 3.152481,-2.873505c0.089447,-1.675079 -1.17691,-3.104706 -2.828552,-3.192902c-1.651642,-0.088196 -3.063034,1.198425 -3.152481,2.873505c-0.089447,1.675232 1.176895,3.104706 2.828552,3.192902z"/>
    <path fill="#ffffff" stroke="#000000" stroke-miterlimit="4" d="m192.222046,301.514496c1.651642,0.088196 3.063019,-1.198303 3.152466,-2.873505c0.089447,-1.675079 -1.176895,-3.104706 -2.828537,-3.192902c-1.651642,-0.088196 -3.063034,1.198425 -3.152481,2.873505c-0.089447,1.675232 1.17691,3.104706 2.828552,3.192902z" id="path4560"/>
    <path fill="#ffffff" stroke="#000000" stroke-miterlimit="4" id="path4562" d="m185.788574,296.694397c1.651627,0.088196 3.063019,-1.198303 3.152466,-2.873505c0.089447,-1.675079 -1.17688,-3.104706 -2.828537,-3.192902c-1.651642,-0.088196 -3.063034,1.198425 -3.152481,2.873505c-0.089447,1.675232 1.17691,3.104706 2.828552,3.192902z"/>
    <path fill="#ffffff" stroke="#000000" stroke-miterlimit="4" d="m160.638641,273.415344c1.651642,0.088196 3.063019,-1.198303 3.152466,-2.873505c0.089447,-1.675079 -1.176895,-3.104706 -2.828537,-3.192902c-1.651642,-0.088196 -3.063034,1.198425 -3.152481,2.873505c-0.089462,1.675232 1.176895,3.104706 2.828552,3.192902z" id="path4564"/>
    <path fill="#ffffff" stroke="#000000" stroke-miterlimit="4" id="path4566" d="m166.929321,279.849182c1.651642,0.088196 3.063034,-1.198273 3.152481,-2.873505c0.089447,-1.675079 -1.176895,-3.104706 -2.828537,-3.192902c-1.651642,-0.088196 -3.063034,1.198456 -3.152481,2.873535c-0.089462,1.675201 1.176895,3.104675 2.828537,3.192871z"/>
    <path fill="#ffffff" stroke="#000000" stroke-miterlimit="4" d="m173.067673,285.815063c1.651642,0.088196 3.063034,-1.198273 3.152481,-2.873505c0.089447,-1.675079 -1.176895,-3.104706 -2.828537,-3.192902c-1.651657,-0.088196 -3.063034,1.198425 -3.152481,2.873505c-0.089462,1.675232 1.176895,3.104706 2.828537,3.192902z" id="path4568"/>
    <path fill="#ffffff" stroke="#000000" stroke-miterlimit="4" id="path4570" d="m178.836182,291.582825c1.651642,0.088196 3.063019,-1.198303 3.152481,-2.873535c0.089432,-1.675079 -1.176895,-3.104675 -2.828552,-3.192871c-1.651642,-0.088196 -3.063034,1.198425 -3.152481,2.873505c-0.089447,1.675232 1.176895,3.104706 2.828552,3.192902z"/>
    <path fill="#ffffff" stroke="#000000" stroke-miterlimit="4" d="m221.441681,320.217865c1.651642,0.088196 3.063034,-1.198273 3.152496,-2.873505c0.089447,-1.675079 -1.17691,-3.104675 -2.828552,-3.192871c-1.651642,-0.088196 -3.063034,1.198425 -3.152481,2.873505c-0.089462,1.675201 1.17691,3.104675 2.828537,3.192871z" id="path4572"/>
   </g>
   <g id="g4402">
    <path fill="#ffffff" stroke="#000000" stroke-miterlimit="4" d="m134.670944,128.055222c0.538345,1.563934 2.260742,2.389023 3.846878,1.843048c1.586243,-0.546036 2.435715,-2.256439 1.897369,-3.820374c-0.538315,-1.563805 -2.260574,-2.388939 -3.846832,-1.842911c-1.586121,0.54599 -2.435715,2.256432 -1.897415,3.820236z" id="path4310"/>
    <path fill="#ffffff" stroke="#000000" stroke-miterlimit="4" id="path4314" d="m130.769424,135.808456c0.538345,1.563919 2.260742,2.389023 3.846863,1.843033c1.586258,-0.546021 2.43573,-2.256439 1.897385,-3.820358c-0.538315,-1.563812 -2.260574,-2.388947 -3.846832,-1.842911c-1.586121,0.54599 -2.435715,2.256424 -1.897415,3.820236z"/>
    <path fill="#ffffff" stroke="#000000" stroke-miterlimit="4" d="m127.661064,143.811768c0.538353,1.563934 2.26075,2.389023 3.84687,1.843033c1.586258,-0.546021 2.435715,-2.256424 1.897369,-3.820358c-0.5383,-1.563797 -2.260574,-2.388947 -3.846832,-1.842911c-1.586121,0.54599 -2.435715,2.256424 -1.897408,3.820236z" id="path4316"/>
    <path fill="#ffffff" stroke="#000000" stroke-miterlimit="4" id="path4319" d="m125.145844,152.065292c0.538353,1.563934 2.260742,2.389038 3.846863,1.843048c1.586258,-0.546036 2.43573,-2.256439 1.897369,-3.820374c-0.5383,-1.563797 -2.260559,-2.388947 -3.846817,-1.842911c-1.586128,0.54599 -2.435722,2.256439 -1.897415,3.820236z"/>
    <path fill="#ffffff" stroke="#000000" stroke-miterlimit="4" d="m123.034187,160.755844c0.538345,1.563934 2.260742,2.389038 3.84687,1.843048c1.586258,-0.546036 2.435715,-2.256439 1.897369,-3.820374c-0.538315,-1.563797 -2.260574,-2.388947 -3.846825,-1.842911c-1.586128,0.54599 -2.435722,2.256439 -1.897415,3.820236z" id="path4321"/>
    <path fill="#ffffff" stroke="#000000" stroke-miterlimit="4" id="path4323" d="m120.493805,196.275879c0.538353,1.563934 2.26075,2.389023 3.84687,1.843033c1.586258,-0.546036 2.435722,-2.256424 1.897369,-3.820358c-0.538307,-1.563812 -2.260567,-2.388947 -3.846825,-1.842911c-1.586128,0.54599 -2.435715,2.256424 -1.897415,3.820236z"/>
    <path fill="#ffffff" stroke="#000000" stroke-miterlimit="4" d="m119.754112,187.598022c0.538345,1.563934 2.260742,2.389038 3.84687,1.843048c1.586258,-0.546036 2.435715,-2.256439 1.897369,-3.820374c-0.538307,-1.563797 -2.260574,-2.388947 -3.846825,-1.842911c-1.586128,0.54599 -2.435722,2.256439 -1.897415,3.820236z" id="path4325"/>
    <path fill="#ffffff" stroke="#000000" stroke-miterlimit="4" id="path4327" d="m120.274536,178.618515c0.538353,1.563934 2.26075,2.389023 3.84687,1.843033c1.586258,-0.546021 2.435722,-2.256424 1.897369,-3.820358c-0.5383,-1.563812 -2.260567,-2.388947 -3.846825,-1.842911c-1.586121,0.54599 -2.435715,2.256424 -1.897415,3.820236z"/>
    <path fill="#ffffff" stroke="#000000" stroke-miterlimit="4" d="m121.519066,169.731216c0.538353,1.563934 2.260742,2.389023 3.84687,1.843033c1.586258,-0.546036 2.435715,-2.256424 1.897369,-3.820358c-0.538307,-1.563812 -2.260567,-2.388947 -3.846825,-1.842911c-1.586128,0.54599 -2.435722,2.256424 -1.897415,3.820236z" id="path4331"/>
    <path fill="#ffffff" stroke="#000000" stroke-miterlimit="4" id="path4333" d="m152.199692,266.449554c1.442673,0.808655 3.277191,0.277954 4.097443,-1.185394c0.820236,-1.463379 0.315613,-3.305237 -1.127075,-4.113892c-1.442688,-0.808655 -3.277191,-0.277954 -4.097443,1.185425c-0.820251,1.463379 -0.315613,3.305237 1.127075,4.113861z"/>
    <path fill="#ffffff" stroke="#000000" stroke-miterlimit="4" d="m147.361465,259.715424c1.442688,0.808655 3.277191,0.277954 4.097443,-1.185394c0.820251,-1.463379 0.315613,-3.305237 -1.12706,-4.113892c-1.442688,-0.808655 -3.277206,-0.277939 -4.097443,1.185425c-0.820251,1.463348 -0.315613,3.305237 1.12706,4.113861z" id="path4335"/>
    <path fill="#ffffff" stroke="#000000" stroke-miterlimit="4" id="path4337" d="m142.254044,252.999664c1.442673,0.80867 3.277191,0.277954 4.097443,-1.18541c0.820236,-1.463364 0.315613,-3.305222 -1.127075,-4.113876c-1.442688,-0.80867 -3.277191,-0.277954 -4.097443,1.18541c-0.820251,1.463364 -0.315613,3.305222 1.127075,4.113876z"/>
    <path fill="#ffffff" stroke="#000000" stroke-miterlimit="4" d="m138.179916,245.573898c1.442688,0.808655 3.277206,0.277939 4.097443,-1.185425c0.820251,-1.463364 0.315613,-3.305222 -1.12706,-4.113876c-1.442688,-0.808655 -3.277191,-0.277939 -4.097443,1.185425c-0.820251,1.463364 -0.315613,3.305222 1.12706,4.113876z" id="path4339"/>
    <path fill="#ffffff" stroke="#000000" stroke-miterlimit="4" id="path4341" d="m134.176636,239.140167c1.442673,0.808655 3.277191,0.277954 4.097443,-1.18541c0.820236,-1.463364 0.315598,-3.305222 -1.127075,-4.113876c-1.442688,-0.80867 -3.277191,-0.277954 -4.097443,1.18541c-0.820251,1.463364 -0.315613,3.305222 1.127075,4.113876z"/>
    <path fill="#ffffff" stroke="#000000" stroke-miterlimit="4" d="m123.733826,206.533401c1.44268,0.808655 3.277191,0.277939 4.097443,-1.185425c0.820251,-1.463364 0.315613,-3.305222 -1.127068,-4.113876c-1.44268,-0.808655 -3.277199,-0.277954 -4.097443,1.18541c-0.820251,1.463364 -0.315613,3.305222 1.127068,4.113892z" id="path4343"/>
    <path fill="#ffffff" stroke="#000000" stroke-miterlimit="4" id="path4345" d="m125.030937,214.999771c1.44268,0.808655 3.277184,0.277954 4.097435,-1.18541c0.820251,-1.463379 0.315613,-3.305237 -1.12706,-4.113892c-1.442688,-0.808655 -3.277199,-0.277939 -4.09745,1.185425c-0.820244,1.463364 -0.315613,3.305222 1.127075,4.113876z"/>
    <path fill="#ffffff" stroke="#000000" stroke-miterlimit="4" d="m127.740265,223.291428c1.442673,0.808655 3.277191,0.277939 4.097443,-1.185425c0.820251,-1.463364 0.315613,-3.305222 -1.127075,-4.113876c-1.442673,-0.808655 -3.277191,-0.277954 -4.097443,1.18541c-0.820244,1.463364 -0.315613,3.305222 1.127075,4.113892z" id="path4347"/>
    <path fill="#ffffff" stroke="#000000" stroke-miterlimit="4" id="path4349" d="m131.013916,231.483185c1.442688,0.808655 3.277206,0.277939 4.097443,-1.185425c0.820251,-1.463364 0.315613,-3.305222 -1.12706,-4.113876c-1.442688,-0.808655 -3.277191,-0.277939 -4.097443,1.185425c-0.820251,1.463364 -0.315613,3.305222 1.12706,4.113876z"/>
    <path fill="#ffffff" stroke="#000000" stroke-miterlimit="4" d="m211.224915,316.179321c1.651642,0.088196 3.063019,-1.198303 3.152481,-2.873535c0.089447,-1.675079 -1.176895,-3.104675 -2.828537,-3.192871c-1.651642,-0.088196 -3.063034,1.198425 -3.152496,2.873505c-0.089447,1.675232 1.17691,3.104706 2.828552,3.192902z" id="path4364"/>
    <path fill="#ffffff" stroke="#000000" stroke-miterlimit="4" id="path4366" d="m204.041687,312.027069c1.651642,0.088196 3.063019,-1.198303 3.152481,-2.873505c0.089432,-1.675079 -1.17691,-3.104706 -2.828537,-3.192902c-1.651657,-0.088196 -3.063049,1.198425 -3.152496,2.873505c-0.089447,1.675232 1.17691,3.104706 2.828552,3.192902z"/>
    <path fill="#ffffff" stroke="#000000" stroke-miterlimit="4" d="m196.697052,307.033112c1.651642,0.088196 3.063019,-1.198303 3.152481,-2.873505c0.089447,-1.675079 -1.17691,-3.104706 -2.828537,-3.192902c-1.651657,-0.088196 -3.063034,1.198425 -3.152496,2.873505c-0.089447,1.675232 1.17691,3.104706 2.828552,3.192902z" id="path4368"/>
    <path fill="#ffffff" stroke="#000000" stroke-miterlimit="4" id="path4370" d="m189.761642,301.76239c1.651642,0.088196 3.063019,-1.198273 3.152481,-2.873505c0.089447,-1.675079 -1.176895,-3.104706 -2.828537,-3.192902c-1.651657,-0.088196 -3.063049,1.198456 -3.152481,2.873535c-0.089462,1.675201 1.176895,3.104675 2.828537,3.192871z"/>
    <path fill="#ffffff" stroke="#000000" stroke-miterlimit="4" d="m183.328156,296.942291c1.651657,0.088196 3.063034,-1.198303 3.152496,-2.873505c0.089447,-1.675079 -1.17691,-3.104706 -2.828552,-3.192902c-1.651642,-0.088196 -3.063034,1.198425 -3.152466,2.873505c-0.089462,1.675232 1.176895,3.104706 2.828522,3.192902z" id="path4372"/>
    <path fill="#ffffff" stroke="#000000" stroke-miterlimit="4" id="path4374" d="m158.178238,273.663239c1.651642,0.088196 3.063019,-1.198273 3.152481,-2.873505c0.089447,-1.675079 -1.17691,-3.104706 -2.828552,-3.192902c-1.651642,-0.088196 -3.063034,1.198425 -3.152481,2.873505c-0.089447,1.675232 1.176895,3.104706 2.828552,3.192902z"/>
    <path fill="#ffffff" stroke="#000000" stroke-miterlimit="4" d="m164.468918,280.097076c1.651657,0.088196 3.063034,-1.198273 3.152481,-2.873505c0.089447,-1.675079 -1.176895,-3.104675 -2.828537,-3.192871c-1.651642,-0.088196 -3.063034,1.198425 -3.152481,2.873505c-0.089447,1.675201 1.176895,3.104675 2.828537,3.192871z" id="path4376"/>
    <path fill="#ffffff" stroke="#000000" stroke-miterlimit="4" id="path4378" d="m170.607269,286.062958c1.651642,0.088196 3.063034,-1.198273 3.152481,-2.873505c0.089447,-1.675079 -1.176895,-3.104675 -2.828537,-3.192871c-1.651642,-0.088196 -3.063034,1.198425 -3.152481,2.873505c-0.089462,1.675201 1.176895,3.104675 2.828537,3.192871z"/>
    <path fill="#ffffff" stroke="#000000" stroke-miterlimit="4" d="m176.375778,291.830719c1.651642,0.088196 3.063019,-1.198303 3.152481,-2.873505c0.089447,-1.675079 -1.17691,-3.104706 -2.828552,-3.192902c-1.651642,-0.088196 -3.063034,1.198425 -3.152481,2.873505c-0.089447,1.675232 1.176895,3.104706 2.828552,3.192902z" id="path4380"/>
    <path fill="#ffffff" stroke="#000000" stroke-miterlimit="4" id="path4400" d="m218.981293,320.465759c1.651642,0.088196 3.063019,-1.198273 3.152481,-2.873505c0.089432,-1.675079 -1.176895,-3.104675 -2.828537,-3.192871c-1.651657,-0.088196 -3.063034,1.198425 -3.152496,2.873505c-0.089447,1.675201 1.17691,3.104675 2.828552,3.192871z"/>
   </g>
   <g id="g4512">
    <path opacity="0.555556" fill="#ffffff" stroke="#000000" stroke-miterlimit="4" filter="url(#filter4508)" d="m134.024078,109.715187c11.154678,32.404945 46.841766,49.502663 79.709259,38.188759c32.867493,-11.313889 50.46933,-46.755112 39.314651,-79.160057c-11.154709,-32.405037 -46.841873,-49.50272 -79.709366,-38.188826c-32.867493,11.313894 -50.469238,46.755087 -39.314545,79.160124z" id="path4490"/>
    <path fill="#ffffff" stroke="#000000" stroke-miterlimit="4" id="path3549" d="m130.560211,103.941902c11.154678,32.404961 46.841766,49.502663 79.709259,38.188774c32.867493,-11.313904 50.46933,-46.755119 39.314651,-79.160072c-11.154709,-32.405033 -46.841873,-49.502716 -79.709366,-38.188822c-32.867493,11.313894 -50.469246,46.755091 -39.314545,79.16012z"/>
   </g>
  </g>
 </g>
</svg>